<?xml version="1.0" encoding="utf-8"?>
<!-- Generator: Adobe Illustrator 24.0.1, SVG Export Plug-In . SVG Version: 6.00 Build 0)  -->
<svg version="1.1" xmlns="http://www.w3.org/2000/svg" xmlns:xlink="http://www.w3.org/1999/xlink" x="0px" y="0px"
	 viewBox="0 0 766 578.33" style="enable-background:new 0 0 766 578.33;" xml:space="preserve">
<style type="text/css">
	.st0{fill:none;stroke:#FFFFFF;stroke-miterlimit:10;}
	.st1{fill:#FFFFFF;}
	.st2{fill:none;stroke:#FFFFFF;stroke-width:2;stroke-miterlimit:10;}
</style>
<g id="Lines">
	<polyline class="st0" points="90.65,149.26 90.65,85.04 701.61,85.04 	"/>
	<polyline class="st0" points="105.26,149.26 105.26,96.04 716.22,96.04 	"/>
	<polyline class="st0" points="150.65,149.26 150.65,106.65 727.35,106.65 	"/>
	<polyline class="st0" points="596.3,480.73 596.3,466.48 675.84,466.48 	"/>
	<polyline class="st0" points="186.83,149.26 186.83,117.15 739.87,117.15 	"/>
	<polyline class="st0" points="570.83,362.65 570.83,334.59 12.22,334.59 	"/>
	<polyline class="st0" points="76.91,149.26 76.91,41.26 179.17,41.26 	"/>
	<polyline class="st0" points="249.61,149.43 249.61,42.04 358.3,42.04 	"/>
	<polyline class="st0" points="419.7,149.26 419.7,42.04 527.35,42.04 	"/>
	<polyline class="st0" points="590.3,149.52 590.3,42.04 697.96,42.04 	"/>
	<polyline class="st0" points="55.17,149.26 55.17,127.96 172.57,127.96 172.57,149.26 	"/>
	<polyline class="st0" points="116.74,149.26 116.74,139.52 144.39,139.52 144.39,149.26 	"/>
	<polyline class="st0" points="288.57,149.26 288.57,139.52 316.22,139.52 316.22,149.26 	"/>
	<polyline class="st0" points="457.96,149.26 457.96,139.52 485.61,139.52 485.61,149.26 	"/>
	<polyline class="st0" points="627.74,149.26 627.74,139.52 655.39,139.52 655.39,149.26 	"/>
	<polyline class="st0" points="228.39,149.26 228.39,127.96 345.78,127.96 345.78,149.26 	"/>
	<polyline class="st0" points="63.96,362.65 63.96,312.7 625.96,312.7 625.96,362.65 	"/>
	<polyline class="st0" points="180.17,362.65 180.17,291.37 655.39,291.37 655.39,362.65 	"/>
	<polyline class="st0" points="311.65,362.4 311.65,270.04 683.65,270.04 683.65,362.65 	"/>
	<polyline class="st0" points="481.87,362.64 481.87,247.87 722.48,247.87 722.48,362.65 	"/>
	<polyline class="st0" points="496.78,421.59 496.78,259.06 695.83,259.06 695.83,362.65 	"/>
	<polyline class="st0" points="327.52,420.59 327.52,280.71 662.61,280.71 662.61,362.65 	"/>
	<polyline class="st0" points="196.91,420.59 196.91,302.83 632.22,302.83 632.22,362.65 	"/>
	<polyline class="st0" points="79.57,420.59 79.57,323.35 578.07,323.35 578.07,362.65 	"/>
	<polyline class="st0" points="25.57,362.65 25.57,344.87 435.7,344.87 435.7,362.17 	"/>
	<polyline class="st0" points="398.83,149.17 398.83,127.87 513.52,127.87 513.52,149.17 	"/>
	<polyline class="st0" points="567.26,149.17 567.26,128.87 684.65,128.87 684.65,149.17 	"/>
	<line class="st0" x1="12.22" y1="29.43" x2="12.22" y2="362.65"/>
	<line class="st0" x1="35.7" y1="82.48" x2="35.7" y2="344.87"/>
	<line class="st0" x1="55.17" y1="29.43" x2="55.17" y2="149.26"/>
	<line class="st0" x1="228.39" y1="29.04" x2="228.39" y2="149.65"/>
	<line class="st0" x1="358.3" y1="29.59" x2="358.3" y2="149.26"/>
	<line class="st0" x1="398.83" y1="29.04" x2="398.83" y2="149.26"/>
	<line class="st0" x1="527.43" y1="29.59" x2="527.43" y2="149.26"/>
	<line class="st0" x1="567.26" y1="29.57" x2="567.26" y2="149.17"/>
	<line class="st0" x1="697.39" y1="29.59" x2="697.39" y2="149.65"/>
	<line class="st0" x1="130.91" y1="75.87" x2="130.91" y2="138.52"/>
	<line class="st0" x1="302.39" y1="74.75" x2="302.39" y2="138.39"/>
	<line class="st0" x1="261.96" y1="84.87" x2="261.96" y2="149.43"/>
	<line class="st0" x1="234.65" y1="291.07" x2="234.65" y2="362.65"/>
	<line class="st0" x1="394.52" y1="280.71" x2="394.52" y2="362.8"/>
	<line class="st0" x1="261.96" y1="302.83" x2="261.96" y2="362.65"/>
	<line class="st0" x1="417.26" y1="302.83" x2="417.26" y2="362.65"/>
	<line class="st0" x1="454.67" y1="302.83" x2="454.67" y2="362.65"/>
	<line class="st0" x1="537.26" y1="302.83" x2="537.26" y2="362.65"/>
	<line class="st0" x1="585" y1="302.83" x2="585" y2="362.65"/>
	<line class="st0" x1="255.63" y1="312.83" x2="255.63" y2="362.65"/>
	<line class="st0" x1="412.57" y1="312.76" x2="412.57" y2="362.59"/>
	<line class="st0" x1="113.71" y1="312.04" x2="113.71" y2="362.87"/>
	<line class="st0" x1="291.52" y1="302.83" x2="291.52" y2="362.65"/>
	<line class="st0" x1="285.78" y1="323.35" x2="285.78" y2="362.43"/>
	<line class="st0" x1="448.57" y1="323.35" x2="448.57" y2="362.43"/>
	<line class="st0" x1="506.23" y1="237.31" x2="506.23" y2="280.71"/>
	<line class="st0" x1="532.53" y1="323.35" x2="532.53" y2="362.43"/>
	<line class="st0" x1="135.75" y1="323.35" x2="135.75" y2="362.43"/>
	<line class="st0" x1="64.5" y1="388.8" x2="64.5" y2="421.3"/>
	<line class="st0" x1="181.27" y1="388.8" x2="181.27" y2="421.3"/>
	<line class="st0" x1="255.63" y1="392.52" x2="255.63" y2="425.02"/>
	<line class="st0" x1="312.85" y1="388.8" x2="312.85" y2="421.3"/>
	<line class="st0" x1="481.87" y1="388.8" x2="481.87" y2="421.3"/>
	<line class="st0" x1="540.57" y1="399.7" x2="540.57" y2="552.22"/>
	<line class="st0" x1="585" y1="397.96" x2="585" y2="480.73"/>
	<line class="st0" x1="675.84" y1="458.62" x2="675.84" y2="546.83"/>
	<line class="st0" x1="590.3" y1="514" x2="590.3" y2="546.83"/>
	<line class="st0" x1="406.04" y1="514" x2="406.04" y2="553.26"/>
	<line class="st0" x1="260.02" y1="514.48" x2="260.02" y2="553.74"/>
	<line class="st0" x1="255.63" y1="458.13" x2="255.63" y2="483.7"/>
	<line class="st0" x1="401.26" y1="458.13" x2="401.26" y2="482.7"/>
	<line class="st0" x1="83.87" y1="179.52" x2="83.87" y2="206.09"/>
	<line class="st0" x1="256.11" y1="179.52" x2="256.11" y2="206.09"/>
	<line class="st0" x1="426.04" y1="179.52" x2="426.04" y2="206.09"/>
	<line class="st0" x1="595.39" y1="179.52" x2="595.39" y2="206.09"/>
	<line class="st0" x1="121.43" y1="456.8" x2="121.43" y2="483.37"/>
	<line class="st0" x1="126.39" y1="515" x2="126.39" y2="553.52"/>
	<line class="st0" x1="24.91" y1="515" x2="24.91" y2="553.52"/>
	<line class="st0" x1="195.76" y1="528.22" x2="195.76" y2="553.41"/>
	<line class="st0" x1="281.09" y1="334.59" x2="281.09" y2="362.43"/>
	<line class="st0" x1="442.28" y1="334.2" x2="442.28" y2="363.04"/>
	<line class="st0" x1="142.5" y1="334.2" x2="142.5" y2="363.04"/>
	<line class="st0" x1="275.09" y1="345.39" x2="275.09" y2="362.43"/>
	<line class="st0" x1="353.87" y1="345.5" x2="353.87" y2="362.54"/>
	<line class="st0" x1="595.39" y1="237" x2="595.39" y2="247.87"/>
	<line class="st0" x1="675.68" y1="237.3" x2="675.68" y2="258.9"/>
	<line class="st0" x1="380.48" y1="345.39" x2="380.48" y2="362.43"/>
	<line class="st0" x1="407.09" y1="345.39" x2="407.09" y2="362.43"/>
	<line class="st0" x1="249.3" y1="345.39" x2="249.3" y2="362.43"/>
	<line class="st0" x1="222.13" y1="345.5" x2="222.13" y2="362.54"/>
	<line class="st0" x1="129" y1="345.5" x2="129" y2="362.54"/>
	<line class="st0" x1="156.52" y1="127.96" x2="156.52" y2="149.26"/>
	<line class="st0" x1="328.83" y1="128.87" x2="328.83" y2="150.17"/>
	<line class="st0" x1="302.75" y1="42.04" x2="302.75" y2="50.87"/>
	<line class="st0" x1="472.21" y1="42.04" x2="472.21" y2="50.87"/>
	<line class="st0" x1="642.65" y1="42.04" x2="642.65" y2="50.87"/>
	<line class="st0" x1="131.22" y1="41.26" x2="131.22" y2="50.85"/>
	<line class="st0" x1="100.3" y1="345.5" x2="100.3" y2="362.54"/>
	<line class="st0" x1="387.78" y1="291.37" x2="387.78" y2="362.65"/>
	<line class="st0" x1="422.96" y1="280.71" x2="422.96" y2="362.43"/>
	<line class="st0" x1="462.08" y1="280.71" x2="462.08" y2="362.43"/>
	<line class="st0" x1="543.52" y1="280.71" x2="543.52" y2="362.43"/>
	<line class="st0" x1="591.26" y1="280.71" x2="591.26" y2="362.43"/>
	<line class="st0" x1="636.39" y1="280.71" x2="636.39" y2="362.43"/>
	<line class="st0" x1="548.48" y1="259.06" x2="548.48" y2="362.43"/>
	<line class="st0" x1="597.52" y1="259.06" x2="597.52" y2="362.43"/>
	<line class="st0" x1="642.65" y1="259.06" x2="642.65" y2="362.43"/>
	<line class="st0" x1="668.74" y1="259.06" x2="668.74" y2="362.43"/>
	<line class="st0" x1="84.31" y1="237.26" x2="84.31" y2="312.04"/>
	<line class="st0" x1="164.97" y1="237.26" x2="164.97" y2="323.35"/>
	<line class="st0" x1="18.57" y1="398.53" x2="18.57" y2="483.7"/>
	<line class="st0" x1="256.61" y1="237.87" x2="256.61" y2="290.3"/>
	<line class="st0" x1="336.21" y1="237.26" x2="336.21" y2="302.83"/>
	<line class="st0" x1="365.61" y1="270.04" x2="365.61" y2="362.65"/>
	<line class="st0" x1="425.57" y1="237.26" x2="425.57" y2="270.04"/>
	<line class="st0" x1="432.04" y1="85.63" x2="432.04" y2="149.43"/>
	<line class="st0" x1="600.04" y1="85.25" x2="600.04" y2="149.52"/>
	<line class="st0" x1="277.61" y1="96.63" x2="277.61" y2="149.43"/>
	<line class="st0" x1="447.35" y1="95.87" x2="447.35" y2="149.43"/>
	<line class="st0" x1="617.09" y1="95.87" x2="617.09" y2="149.43"/>
	<line class="st0" x1="492.02" y1="106.87" x2="492.02" y2="149.43"/>
	<line class="st0" x1="661.61" y1="106.59" x2="661.61" y2="149.15"/>
	<line class="st0" x1="322.17" y1="106.59" x2="322.17" y2="149.15"/>
	<line class="st0" x1="520.48" y1="117.15" x2="520.48" y2="149.26"/>
	<line class="st0" x1="691.02" y1="117.15" x2="691.02" y2="149.26"/>
	<line class="st0" x1="498.83" y1="128.15" x2="498.83" y2="149.26"/>
	<line class="st0" x1="667.87" y1="128.97" x2="667.87" y2="150.08"/>
	<line class="st0" x1="352.04" y1="117.15" x2="352.04" y2="149.26"/>
	<line class="st0" x1="35.17" y1="29.04" x2="35.17" y2="56.1"/>
	<line class="st0" x1="471.78" y1="74.74" x2="471.78" y2="138.39"/>
	<line class="st0" x1="641.57" y1="75.04" x2="641.57" y2="139.61"/>
	<line class="st0" x1="179.17" y1="29.43" x2="179.17" y2="149.26"/>
	<polyline class="st0" points="56.42,179.87 56.42,188.65 76.91,188.65 76.91,204.63 	"/>
	<polyline class="st0" points="150.26,179.26 150.26,189.04 159.29,189.04 159.29,205.02 	"/>
	<polyline class="st0" points="179.17,179.26 179.17,189.04 170.8,189.04 170.8,204.7 	"/>
	<polyline class="st0" points="111.87,179.87 111.87,188.65 91,188.65 91,204.63 	"/>
	<polyline class="st0" points="228.39,179.87 228.39,188.65 248.88,188.65 248.88,204.63 	"/>
	<polyline class="st0" points="283.83,179.87 283.83,188.65 262.96,188.65 262.96,204.63 	"/>
	<polyline class="st0" points="397.84,179.87 397.84,188.65 420.33,188.65 420.33,205.21 	"/>
	<polyline class="st0" points="453.29,179.87 453.29,188.65 432.42,188.65 432.42,204.63 	"/>
	<polyline class="st0" points="567.67,179.87 567.67,188.65 588.16,188.65 588.16,204.63 	"/>
	<polyline class="st0" points="623.11,179.87 623.11,188.65 602.24,188.65 602.24,204.63 	"/>
	<polyline class="st0" points="321.76,178.87 321.76,188.65 330.79,188.65 330.79,204.63 	"/>
	<polyline class="st0" points="350.67,179.87 350.67,188.65 342.3,188.65 342.3,204.3 	"/>
	<polyline class="st0" points="491.43,179.52 491.43,188.3 500.47,188.3 500.47,205.28 	"/>
	<polyline class="st0" points="520.83,178.52 520.83,188.3 511.98,188.3 511.98,203.96 	"/>
	<polyline class="st0" points="661.61,179.29 661.61,188.65 670.64,188.65 670.64,203.61 	"/>
	<polyline class="st0" points="690.52,179.52 690.52,188.65 682.15,188.65 682.15,203.39 	"/>
	<polyline class="st0" points="106.98,392.67 106.98,408.46 116.01,408.46 116.01,423.81 	"/>
	<polyline class="st0" points="228.05,392.5 228.05,410.28 250.09,410.28 250.09,424.26 	"/>
	<polyline class="st0" points="283.52,392.5 283.52,410.28 261.39,410.28 261.39,424.26 	"/>
	<polyline class="st0" points="448.11,392.39 448.11,411.17 409.25,411.17 409.25,424.15 	"/>
	<polyline class="st0" points="359.8,392.74 359.8,410.52 393.53,410.52 393.53,423.5 	"/>
	<polyline class="st0" points="387.65,392.74 387.65,400.74 398.22,400.74 398.22,424.88 	"/>
	<polyline class="st0" points="415.37,392.74 415.37,400.74 404.11,400.74 404.11,424.88 	"/>
	<polyline class="st0" points="135.89,392.67 135.89,408.46 127.52,408.46 127.52,423.11 	"/>
	<polyline class="st0" points="72.98,450.93 72.98,460.72 29.43,460.72 29.43,483.37 	"/>
	<polyline class="st0" points="188.02,450.93 188.02,460.72 131.71,460.72 131.71,483.37 	"/>
	<polyline class="st0" points="319.41,450.93 319.41,460.72 266.1,460.72 266.1,483.37 	"/>
	<polyline class="st0" points="489.33,450.93 489.33,460.72 411.57,460.72 411.57,482.75 	"/>
	<polyline class="st0" points="723.52,392.52 723.52,410.65 684.66,410.65 684.66,423.28 	"/>
	<polyline class="st0" points="635.22,392.87 635.22,410.65 668.95,410.65 668.95,423.63 	"/>
	<polyline class="st0" points="662.07,392.87 662.07,400.87 672.63,400.87 672.63,425.01 	"/>
	<polyline class="st0" points="690.78,392.87 690.78,400.87 678.52,400.87 678.52,425.01 	"/>
	<line class="st0" x1="431.87" y1="362.59" x2="465.26" y2="362.59"/>
	<line class="st0" x1="567" y1="362.43" x2="601.09" y2="362.43"/>
	<polyline class="st0" points="24.91,536.91 173.26,536.91 173.26,488.13 188.02,488.13 188.02,498.35 	"/>
	<polyline class="st0" points="406.04,537.61 217.38,537.61 217.38,487.83 202.62,487.83 202.62,498.04 	"/>
	<polyline class="st0" points="260.02,526.35 227.79,526.35 227.79,477.43 198.05,477.43 198.05,498.04 	"/>
	<polyline class="st0" points="126.39,520.7 163.52,520.7 163.52,477.43 193.26,477.43 193.26,498.26 	"/>
	<path class="st0" d="M13.22,480.35c0,0,5.91,4.04,11.65,4.04s12.68-4.04,12.68-4.04"/>
	<path class="st0" d="M114.71,480.35c0,0,5.91,4.04,11.65,4.04c5.74,0,12.68-4.04,12.68-4.04"/>
	<path class="st0" d="M248.17,480.35c0,0,5.91,4.04,11.65,4.04s12.68-4.04,12.68-4.04"/>
	<path class="st0" d="M394.41,479.65c0,0,5.91,4.04,11.65,4.04c5.74,0,12.68-4.04,12.68-4.04"/>
</g>
<g id="AND">
	<path class="st1" d="M44.77,171.35v-21.7h23.3v21.7c0,0-1.91,8.17-11.65,8.17S44.77,171.35,44.77,171.35z"/>
	<path class="st1" d="M72.22,171.35v-21.7h23.3v21.7c0,0-1.91,8.17-11.65,8.17S72.22,171.35,72.22,171.35z"/>
	<path class="st1" d="M99.35,171.35v-21.7h23.3v21.7c0,0-1.91,8.17-11.65,8.17S99.35,171.35,99.35,171.35z"/>
	<path class="st1" d="M139,171.35v-21.7h23.3v21.7c0,0-1.91,8.17-11.65,8.17S139,171.35,139,171.35z"/>
	<path class="st1" d="M167.52,171.35v-21.7h23.3v21.7c0,0-1.91,8.17-11.65,8.17C169.43,179.52,167.52,171.35,167.52,171.35z"/>
	<path class="st1" d="M216.74,171.35v-21.7h23.3v21.7c0,0-1.91,8.17-11.65,8.17C218.65,179.52,216.74,171.35,216.74,171.35z"/>
	<path class="st1" d="M243.96,171.35v-21.7h23.3v21.7c0,0-1.91,8.17-11.65,8.17C245.87,179.52,243.96,171.35,243.96,171.35z"/>
	<path class="st1" d="M271.87,170.96v-21.7h23.3v21.7c0,0-1.91,8.17-11.65,8.17C273.78,179.13,271.87,170.96,271.87,170.96z"/>
	<path class="st1" d="M310.52,170.96v-21.7h23.3v21.7c0,0-1.91,8.17-11.65,8.17S310.52,170.96,310.52,170.96z"/>
	<path class="st1" d="M339.7,171.35v-21.7H363v21.7c0,0-1.91,8.17-11.65,8.17C341.61,179.52,339.7,171.35,339.7,171.35z"/>
	<path class="st1" d="M387.17,171.35v-21.7h23.3v21.7c0,0-1.91,8.17-11.65,8.17S387.17,171.35,387.17,171.35z"/>
	<path class="st1" d="M413.91,171.35v-21.7h23.3v21.7c0,0-1.91,8.17-11.65,8.17S413.91,171.35,413.91,171.35z"/>
	<path class="st1" d="M440.91,171.35v-21.7h23.3v21.7c0,0-1.91,8.17-11.65,8.17S440.91,171.35,440.91,171.35z"/>
	<path class="st1" d="M479.78,171.35v-21.7h23.3v21.7c0,0-1.91,8.17-11.65,8.17S479.78,171.35,479.78,171.35z"/>
	<path class="st1" d="M508.83,170.87v-21.22h23.3v21.22c0,0-1.91,8.17-11.65,8.17S508.83,170.87,508.83,170.87z"/>
	<path class="st1" d="M556.35,171.35v-21.7h23.3v21.7c0,0-1.91,8.17-11.65,8.17S556.35,171.35,556.35,171.35z"/>
	<path class="st1" d="M583.74,171.35v-21.7h23.3v21.7c0,0-1.91,8.17-11.65,8.17S583.74,171.35,583.74,171.35z"/>
	<path class="st1" d="M611.39,171.35v-21.7h23.3v21.7c0,0-1.91,8.17-11.65,8.17S611.39,171.35,611.39,171.35z"/>
	<path class="st1" d="M649.96,171.35v-21.7h23.3v21.7c0,0-1.91,8.17-11.65,8.17S649.96,171.35,649.96,171.35z"/>
	<path class="st1" d="M678.3,171.35v-21.7h23.3v21.7c0,0-1.91,8.17-11.65,8.17S678.3,171.35,678.3,171.35z"/>
	<path class="st1" d="M711,384.35v-21.7h23.3v21.7c0,0-1.91,8.17-11.65,8.17S711,384.35,711,384.35z"/>
	<path class="st1" d="M679.37,384.35v-21.7h23.3v21.7c0,0-1.91,8.17-11.65,8.17S679.37,384.35,679.37,384.35z"/>
	<path class="st1" d="M649.96,384.35v-21.7h23.3v21.7c0,0-1.91,8.17-11.65,8.17S649.96,384.35,649.96,384.35z"/>
	<path class="st1" d="M623.04,384.35v-21.7h23.3v21.7c0,0-1.91,8.17-11.65,8.17C624.96,392.52,623.04,384.35,623.04,384.35z"/>
	<path class="st1" d="M572.09,384.35v-21.7h23.3v21.7c0,0-1.91,8.17-11.65,8.17S572.09,384.35,572.09,384.35z"/>
	<path class="st1" d="M527.43,384.35v-21.7h23.3v21.7c0,0-1.91,8.17-11.65,8.17S527.43,384.35,527.43,384.35z"/>
	<path class="st1" d="M435.7,384.35v-21.7H459v21.7c0,0-1.91,8.17-11.65,8.17C437.61,392.52,435.7,384.35,435.7,384.35z"/>
	<path class="st1" d="M402.26,384.35v-21.7h23.3v21.7c0,0-1.91,8.17-11.65,8.17C404.17,392.52,402.26,384.35,402.26,384.35z"/>
	<path class="st1" d="M375.52,384.35v-21.7h23.3v21.7c0,0-1.91,8.17-11.65,8.17S375.52,384.35,375.52,384.35z"/>
	<path class="st1" d="M346.65,384.35v-21.7h23.3v21.7c0,0-1.91,8.17-11.65,8.17S346.65,384.35,346.65,384.35z"/>
	<path class="st1" d="M271.87,384.35v-21.7h23.3v21.7c0,0-1.91,8.17-11.65,8.17C273.78,392.52,271.87,384.35,271.87,384.35z"/>
	<path class="st1" d="M243.96,384.35v-21.7h23.3v21.7c0,0-1.91,8.17-11.65,8.17C245.87,392.52,243.96,384.35,243.96,384.35z"/>
	<path class="st1" d="M216.74,384.35v-21.7h23.3v21.7c0,0-1.91,8.17-11.65,8.17C218.65,392.52,216.74,384.35,216.74,384.35z"/>
	<path class="st1" d="M124.74,384.35v-21.7h23.3v21.7c0,0-1.91,8.17-11.65,8.17C126.65,392.52,124.74,384.35,124.74,384.35z"/>
	<path class="st1" d="M93.61,384.35v-21.7h23.3v21.7c0,0-1.91,8.17-11.65,8.17S93.61,384.35,93.61,384.35z"/>
	<path class="st1" d="M5.78,384.35v-21.7h23.3v21.7c0,0-1.91,8.17-11.65,8.17S5.78,384.35,5.78,384.35z"/>
	<path class="st1" d="M60.57,443v-21.7h23.3V443c0,0-1.91,8.17-11.65,8.17S60.57,443,60.57,443z"/>
	<path class="st1" d="M176.37,443v-21.7h23.3V443c0,0-1.91,8.17-11.65,8.17C178.28,451.17,176.37,443,176.37,443z"/>
	<path class="st1" d="M307.87,443v-21.7h23.3V443c0,0-1.91,8.17-11.65,8.17C309.78,451.17,307.87,443,307.87,443z"/>
	<path class="st1" d="M184.11,520.04v-21.7h23.3v21.7c0,0-1.91,8.17-11.65,8.17C186.02,528.22,184.11,520.04,184.11,520.04z"/>
	<path class="st1" d="M477.96,443v-21.7h23.3V443c0,0-1.91,8.17-11.65,8.17S477.96,443,477.96,443z"/>
</g>
<g id="NOT">
	<polygon class="st1" points="64.43,381.78 55.17,362.65 75.39,362.65 	"/>
	<polygon class="st1" points="35.33,75.23 25.07,56.1 46.28,56.1 	"/>
	<polygon class="st1" points="130.87,76.23 120.61,57.1 141.83,57.1 	"/>
	<polygon class="st1" points="302.4,76.23 292.14,57.1 313.36,57.1 	"/>
	<polygon class="st1" points="471.86,76.23 461.6,57.1 482.82,57.1 	"/>
	<polygon class="st1" points="641.64,76.57 631.38,57.44 652.59,57.44 	"/>
	<polygon class="st1" points="180.42,381.78 171.16,362.65 191.38,362.65 	"/>
	<polygon class="st1" points="312,381.53 302.74,362.4 322.95,362.4 	"/>
	<polygon class="st1" points="481.5,381.53 472.24,362.4 492.46,362.4 	"/>
</g>
<g id="OR">
	<path class="st1" d="M83.87,231.61c0,0-5.76-0.54-9.91-9.82c-2.61-5.83-1.74-19.83-1.74-19.83S78.13,206,83.87,206
		c5.74,0,12.68-4.04,12.68-4.04s-0.03,15.63-2.03,19.8C90.6,229.93,83.87,231.61,83.87,231.61z"/>
	<path class="st1" d="M121.43,450.93c0,0-5.76-2.19-9.91-11.48c-2.61-5.83-1.74-19.83-1.74-19.83s5.91,4.04,11.65,4.04
		s12.68-4.04,12.68-4.04s-0.03,15.63-2.03,19.8C128.16,447.6,121.43,450.93,121.43,450.93z"/>
	<path class="st1" d="M255.63,451.68c0,0-6.22-1.27-10.38-10.55c-2.61-5.83-1.74-19.83-1.74-19.83s5.91,4.04,11.65,4.04
		s12.68-4.04,12.68-4.04s-0.03,15.63-2.03,19.8C261.9,449.28,255.63,451.68,255.63,451.68z"/>
	<path class="st1" d="M401.26,451.68c0,0-5.2-1.27-9.36-10.55c-2.61-5.83-1.74-19.83-1.74-19.83s5.91,4.04,11.65,4.04
		c5.74,0,12.68-4.04,12.68-4.04s-0.03,15.63-2.03,19.8C408.55,449.28,401.26,451.68,401.26,451.68z"/>
	<path class="st1" d="M675.4,452.61c0,0-5.76-2.19-9.91-11.48c-2.61-5.83-1.74-19.83-1.74-19.83s5.91,4.04,11.65,4.04
		s12.68-4.04,12.68-4.04s-0.03,15.63-2.03,19.8C682.13,449.28,675.4,452.61,675.4,452.61z"/>
	<path class="st1" d="M590.3,514.48c0,0-6.2-0.95-10.36-10.24c-2.61-5.83-1.74-19.83-1.74-19.83s5.91,4.04,11.65,4.04
		s12.68-4.04,12.68-4.04s-0.03,15.63-2.03,19.8C596.59,512.39,590.3,514.48,590.3,514.48z"/>
	<path class="st1" d="M406.13,514c0,0-5.76-2.19-9.91-11.48c-2.61-5.83-1.74-19.83-1.74-19.83s5.91,4.04,11.65,4.04
		s12.68-4.04,12.68-4.04s-0.03,15.63-2.03,19.8C412.86,510.67,406.13,514,406.13,514z"/>
	<path class="st1" d="M259.96,515c0,0-5.76-2.19-9.91-11.48c-2.61-5.83-1.74-19.83-1.74-19.83s5.91,4.04,11.65,4.04
		s11.68-4.04,11.68-4.04s0.97,15.63-1.03,19.8C266.69,511.67,259.96,515,259.96,515z"/>
	<path class="st1" d="M126.5,515c0,0-5.76-2.19-9.91-11.48c-2.61-5.83-1.74-19.83-1.74-19.83s5.91,4.04,11.65,4.04
		c5.74,0,12.68-4.04,12.68-4.04s-0.03,15.63-2.03,19.8C133.23,511.67,126.5,515,126.5,515z"/>
	<path class="st1" d="M25.12,515c0,0-5.76-2.19-9.91-11.48c-2.61-5.83-1.74-19.83-1.74-19.83s5.91,4.04,11.65,4.04
		s12.68-4.04,12.68-4.04s-0.03,15.63-2.03,19.8C31.85,511.67,25.12,515,25.12,515z"/>
	<path class="st1" d="M164.97,231.61c0,0-6.2-0.8-10.36-10.09c-2.61-5.83-1.74-19.83-1.74-19.83s5.91,4.04,11.65,4.04
		s12.68-4.04,12.68-4.04s-0.03,15.63-2.03,19.8C171.26,229.67,164.97,231.61,164.97,231.61z"/>
	<path class="st1" d="M256.11,231.9c0,0-5.7-0.83-9.86-10.12c-2.61-5.83-1.74-19.83-1.74-19.83s5.91,4.04,11.65,4.04
		s12.68-4.04,12.68-4.04s-0.03,15.63-2.03,19.8C262.9,229.93,256.11,231.9,256.11,231.9z"/>
	<path class="st1" d="M336.21,231.65c0,0-6.2-0.85-10.36-10.13c-2.61-5.83-1.74-19.83-1.74-19.83s5.91,4.04,11.65,4.04
		s12.68-4.04,12.68-4.04s-0.03,15.63-2.03,19.8C342.5,229.67,336.21,231.65,336.21,231.65z"/>
	<path class="st1" d="M425.57,231.65c0,0-6.2-0.59-10.36-9.87c-2.61-5.83-1.74-19.83-1.74-19.83s5.91,4.04,11.65,4.04
		c5.74,0,12.68-4.04,12.68-4.04s-0.03,15.63-2.03,19.8C431.85,229.93,425.57,231.65,425.57,231.65z"/>
	<path class="st1" d="M506.27,231.65c0,0-6.83-0.85-10.99-10.13c-2.61-5.83-1.74-19.83-1.74-19.83s5.91,4.04,11.65,4.04
		s12.68-4.04,12.68-4.04s-0.03,15.63-2.03,19.8C511.92,229.67,506.27,231.65,506.27,231.65z"/>
	<path class="st1" d="M595.39,231.65c0,0-6.2-0.59-10.36-9.87c-2.61-5.83-1.74-19.83-1.74-19.83s5.91,4.04,11.65,4.04
		s12.68-4.04,12.68-4.04s-0.03,15.63-2.03,19.8C601.68,229.93,595.39,231.65,595.39,231.65z"/>
	<path class="st1" d="M675.82,231.65c0,0-5.76-2.19-9.91-11.48c-2.61-5.83-1.74-19.83-1.74-19.83s5.91,4.04,11.65,4.04
		s12.68-4.04,12.68-4.04s-0.03,15.63-2.03,19.8C682.55,228.32,675.82,231.65,675.82,231.65z"/>
</g>
<g id="Circle">
	<circle class="st2" cx="401.26" cy="454.69" r="3"/>
	<circle class="st2" cx="255.63" cy="454.69" r="3"/>
	<circle class="st2" cx="121.43" cy="453.94" r="3"/>
	<circle class="st2" cx="18.57" cy="395.53" r="3"/>
	<circle class="st2" cx="63.96" cy="385.29" r="3"/>
	<circle class="st2" cx="83.87" cy="234.61" r="3"/>
	<circle class="st2" cx="35.67" cy="79.47" r="3"/>
	<circle class="st2" cx="130.91" cy="54.09" r="3"/>
	<circle class="st2" cx="302.39" cy="54.09" r="3"/>
	<circle class="st2" cx="472.21" cy="54.09" r="3"/>
	<circle class="st2" cx="642.65" cy="54.09" r="3"/>
	<circle class="st2" cx="164.97" cy="234.61" r="3"/>
	<circle class="st2" cx="256.11" cy="234.91" r="3"/>
	<circle class="st2" cx="336.21" cy="234.66" r="3"/>
	<circle class="st2" cx="425.57" cy="234.66" r="3"/>
	<circle class="st2" cx="506.27" cy="234.66" r="3"/>
	<circle class="st2" cx="595.39" cy="234.66" r="3"/>
	<circle class="st2" cx="675.68" cy="234.66" r="3"/>
	<circle class="st2" cx="181.27" cy="385.29" r="3"/>
	<circle class="st2" cx="312.85" cy="385.17" r="3"/>
	<circle class="st2" cx="481.96" cy="385.17" r="3"/>
	<circle class="st2" cx="540.57" cy="396.11" r="3"/>
	<circle class="st2" cx="585" cy="395.4" r="3"/>
	<circle class="st2" cx="675.84" cy="455.61" r="3"/>
	<circle class="st2" cx="585" cy="483.73" r="3"/>
	<circle class="st2" cx="596.3" cy="483.73" r="3"/>
	<circle class="st2" cx="675.84" cy="549.83" r="3"/>
	<circle class="st2" cx="590.3" cy="549.83" r="3"/>
</g>
<g id="Dots">
	<circle class="st1" cx="130.91" cy="139.52" r="3"/>
	<circle class="st1" cx="156.52" cy="128.65" r="3"/>
	<circle class="st1" cx="228.39" cy="128.65" r="3"/>
	<circle class="st1" cx="261.96" cy="85.04" r="3"/>
	<circle class="st1" cx="277.61" cy="96.04" r="3"/>
	<circle class="st1" cx="323" cy="107.2" r="3"/>
	<circle class="st1" cx="328.83" cy="127.96" r="3"/>
	<circle class="st1" cx="351.35" cy="118.04" r="3"/>
	<circle class="st1" cx="398.83" cy="128.87" r="3"/>
	<circle class="st1" cx="432.04" cy="85.63" r="3"/>
	<circle class="st1" cx="447.35" cy="95.87" r="3"/>
	<circle class="st1" cx="472.21" cy="139.52" r="3"/>
	<circle class="st1" cx="498.83" cy="128.15" r="3"/>
	<circle class="st1" cx="492.02" cy="106.65" r="3"/>
	<circle class="st1" cx="520.83" cy="117.53" r="3"/>
	<circle class="st1" cx="567.67" cy="128.87" r="3"/>
	<circle class="st1" cx="600.04" cy="85.25" r="3"/>
	<circle class="st1" cx="527.43" cy="42.04" r="3"/>
	<circle class="st1" cx="642.65" cy="42.04" r="3"/>
	<circle class="st1" cx="697.39" cy="42.74" r="3"/>
	<circle class="st1" cx="617.09" cy="95.65" r="3"/>
	<circle class="st1" cx="641.99" cy="139.52" r="3"/>
	<circle class="st1" cx="667.87" cy="128.87" r="3"/>
	<circle class="st1" cx="675.68" cy="258.9" r="3"/>
	<circle class="st1" cx="668.74" cy="258.9" r="3"/>
	<circle class="st1" cx="642.65" cy="258.9" r="3"/>
	<circle class="st1" cx="636.83" cy="280.71" r="3"/>
	<circle class="st1" cx="590.48" cy="280.71" r="3"/>
	<circle class="st1" cx="597.52" cy="259.06" r="3"/>
	<circle class="st1" cx="548.48" cy="258.9" r="3"/>
	<circle class="st1" cx="543.52" cy="280.71" r="3"/>
	<circle class="st1" cx="537.26" cy="302.83" r="3"/>
	<circle class="st1" cx="585" cy="302.83" r="3"/>
	<circle class="st1" cx="533.17" cy="323.35" r="3"/>
	<circle class="st1" cx="506.23" cy="280.71" r="3"/>
	<circle class="st1" cx="462.08" cy="280.22" r="3"/>
	<circle class="st1" cx="425.57" cy="270.04" r="3"/>
	<circle class="st1" cx="422.26" cy="280.45" r="3"/>
	<circle class="st1" cx="417.26" cy="302.83" r="3"/>
	<circle class="st1" cx="454.67" cy="302.04" r="3"/>
	<circle class="st1" cx="448.57" cy="323.35" r="3"/>
	<circle class="st1" cx="442.28" cy="334.59" r="3"/>
	<circle class="st1" cx="407.09" cy="345.39" r="3"/>
	<circle class="st1" cx="412.57" cy="312.76" r="3"/>
	<circle class="st1" cx="387.78" cy="291.18" r="3"/>
	<circle class="st1" cx="394.52" cy="280.71" r="3"/>
	<circle class="st1" cx="365.61" cy="270.04" r="3"/>
	<circle class="st1" cx="380.48" cy="345.39" r="3"/>
	<circle class="st1" cx="353.87" cy="344.87" r="3"/>
	<circle class="st1" cx="336.21" cy="302.83" r="3"/>
	<circle class="st1" cx="291.52" cy="302.83" r="3"/>
	<circle class="st1" cx="285.78" cy="323.35" r="3"/>
	<circle class="st1" cx="281.09" cy="333.78" r="3"/>
	<circle class="st1" cx="275.09" cy="344.87" r="3"/>
	<circle class="st1" cx="249.3" cy="344.87" r="3"/>
	<circle class="st1" cx="255.61" cy="312.83" r="3"/>
	<circle class="st1" cx="261.96" cy="302.26" r="3"/>
	<circle class="st1" cx="256.61" cy="291.07" r="3"/>
	<circle class="st1" cx="234.65" cy="290.18" r="3"/>
	<circle class="st1" cx="222.13" cy="345.5" r="3"/>
	<circle class="st1" cx="164.97" cy="323.35" r="3"/>
	<circle class="st1" cx="135.75" cy="323.35" r="3"/>
	<circle class="st1" cx="142.5" cy="334.2" r="3"/>
	<circle class="st1" cx="128.11" cy="344.87" r="3"/>
	<circle class="st1" cx="113.71" cy="312.04" r="3"/>
	<circle class="st1" cx="84.31" cy="312.04" r="3"/>
	<circle class="st1" cx="100.3" cy="344.87" r="3"/>
	<circle class="st1" cx="35.7" cy="344.87" r="3"/>
	<circle class="st1" cx="126.87" cy="520.7" r="3"/>
	<circle class="st1" cx="260.02" cy="526.35" r="3"/>
	<circle class="st1" cx="406.57" cy="537.61" r="3"/>
	<circle class="st1" cx="675.84" cy="466.48" r="3"/>
	<circle class="st1" cx="24.91" cy="536.91" r="3"/>
	<circle class="st1" cx="12.22" cy="334.2" r="3"/>
	<circle class="st1" cx="661.61" cy="106.65" r="3"/>
	<circle class="st1" cx="689.96" cy="117.39" r="3"/>
	<circle class="st1" cx="472.21" cy="42.04" r="3"/>
	<circle class="st1" cx="358.3" cy="42.04" r="3"/>
	<circle class="st1" cx="302.39" cy="42.04" r="3"/>
	<circle class="st1" cx="302.39" cy="139.52" r="3"/>
	<circle class="st1" cx="55.17" cy="128.65" r="3"/>
</g>
</svg>
